<svg xmlns="http://www.w3.org/2000/svg" width="256" height="256" viewBox="0 0 256 256">
  <defs>
    <linearGradient id="bg" x1="0" y1="0" x2="1" y2="1">
      <stop offset="0" stop-color="#0d9488"/>
      <stop offset="1" stop-color="#0f766e"/>
    </linearGradient>
  </defs>
  <rect width="256" height="256" rx="58" fill="url(#bg)"/>
  <g transform="translate(56,44) scale(6.0)" fill="#ffffff" stroke="#ffffff" stroke-width="0.4" stroke-linejoin="round">
    <path d="M12 3.5c-2 0-3-1-5-1C4.5 2.5 3 4.5 3 7.5c0 2.2.6 3.7 1.2 6 .5 1.9.7 4.2 1.4 6.3.4 1.2.9 1.7 1.6 1.7.8 0 1.1-.7 1.4-2 .3-1.4.6-3.2 1-4.2.3-.7.7-1 1.4-1s1.1.3 1.4 1c.4 1 .7 2.8 1 4.2.3 1.3.6 2 1.4 2 .7 0 1.2-.5 1.6-1.7.7-2.1.9-4.4 1.4-6.3.6-2.3 1.2-3.8 1.2-6 0-3-1.5-5-4-5-2 0-3 1-5 1z"/>
  </g>
</svg>
